# Blender v2.79 (sub 0) OBJ File: ''
# www.blender.org
mtllib arrow.mtl
o Plane
v 1.000000 0.000000 -1.000000
v -1.204927 0.000000 0.000000
v -1.204927 0.457981 0.000000
v 1.000000 0.457981 -1.000000
v 0.739801 0.664033 -0.634154
v -0.658461 0.664033 0.000000
v 0.739801 0.664033 0.634154
v 1.000000 -0.000000 1.000000
v 1.000000 0.457981 1.000000
v 2.020925 0.457981 0.000000
v 1.517680 0.664033 0.000000
v 2.020925 0.000000 0.000000
vn 0.5417 0.0000 -0.8405
vn -1.0000 -0.0000 -0.0000
vn -0.8919 0.4522 -0.0000
vn 0.3755 0.5577 -0.7402
vn -0.0314 0.9304 -0.3651
vn -0.2947 0.9556 0.0000
vn -0.0314 0.9304 0.3651
vn 0.2575 0.9663 0.0000
vn 0.5417 0.0000 0.8405
vn 0.3755 0.5577 0.7402
vn 1.0000 0.0000 0.0000
vn 0.8108 0.5853 0.0000
usemtl None
s 1
f 1//1 2//2 3//3 4//4
f 5//5 6//6 7//7 11//8
f 2//2 8//9 9//10 3//3
f 8//9 12//11 1//1 4//4 10//12 9//10
f 6//6 5//5 4//4 3//3
f 7//7 6//6 3//3 9//10
f 7//7 9//10 10//12 11//8
f 5//5 11//8 10//12 4//4
l 10 12
